<?xml version="1.0" encoding="UTF-8"?><svg id="Layer_1" xmlns="http://www.w3.org/2000/svg" xmlns:xlink="http://www.w3.org/1999/xlink" viewBox="0 0 1200 1200"><defs><clipPath id="clippath"><rect x="575.33" y="574.51" width="50.75" height="50.75" style="fill:none; stroke-width:0px;"/></clipPath></defs><rect width="1200" height="1200" rx="3" ry="3" style="fill:#eaeaea; stroke-width:0px;"/><g style="opacity:.5;"><g style="opacity:.5;"><path d="M600.71,779.09c-98.97,0-179.21-80.23-179.21-179.21s80.23-179.21,179.21-179.21,179.21,80.23,179.21,179.21-80.23,179.21-179.21,179.21Z" style="fill:#fafafa; stroke-width:0px;"/><path d="M600.71,779.09c-98.97,0-179.21-80.23-179.21-179.21s80.23-179.21,179.21-179.21,179.21,80.23,179.21,179.21-80.23,179.21-179.21,179.21Z" style="fill:none; stroke:#c9c9c9; stroke-width:5px;"/></g><path d="M600.71,674.42c-41.17,0-74.54-33.37-74.54-74.54s33.37-74.54,74.54-74.54,74.54,33.37,74.54,74.54-33.37,74.54-74.54,74.54Z" style="fill:#fff; stroke-width:0px;"/><g style="clip-path:url(#clippath);"><path d="M621.33,582.43h-41.23v21.22l4.66-4.66.7-.7h11.89l.1-.1,11.1-11.1h3.36l9.42,9.42v-14.08h0ZM600.71,601.66l4.85,4.85,1.68,1.68-3.36,3.36-1.68-1.68-6.82-6.82h-7.96l-7.23,7.23-.1.1v3.77c0,1.75,1.42,3.17,3.17,3.17h34.89c1.75,0,3.17-1.42,3.17-3.17h0v-10.91l-11.1-11.1-9.42,9.42-.09.09h0ZM575.33,608.79v5.36c0,4.38,3.55,7.93,7.93,7.93h34.89c4.38,0,7.93-3.55,7.93-7.93h0v-9.33l1.78-1.78-1.68-1.68-.1-.1v-23.6h-50.75v30.73l-.19.19.19.19h0Z" style="fill:#666; fill-rule:evenodd; stroke-width:0px;"/></g><path d="M600.71,674.42c-41.17,0-74.54-33.37-74.54-74.54s33.37-74.54,74.54-74.54,74.54,33.37,74.54,74.54-33.37,74.54-74.54,74.54Z" style="fill:none; stroke:#c9c9c9; stroke-width:5px;"/></g></svg>