<?xml version="1.0" encoding="UTF-8"?><svg id="Layer_1" xmlns="http://www.w3.org/2000/svg" xmlns:xlink="http://www.w3.org/1999/xlink" viewBox="0 0 1001.95 400.97"><defs><clipPath id="clippath"><rect x="492.63" y="192.14" width="16.69" height="16.69" style="fill:none; stroke-width:0px;"/></clipPath><clipPath id="clippath-1"><rect x="492.63" y="192.14" width="16.69" height="16.69" style="fill:none; stroke-width:0px;"/></clipPath></defs><rect x="303.61" y="3.12" width="394.73" height="394.73" rx=".99" ry=".99" style="fill:#eaeaea; stroke-width:0px;"/><g style="opacity:.5;"><g style="opacity:.5;"><path d="M500.98,259.44c-32.56,0-58.95-26.39-58.95-58.95s26.39-58.95,58.95-58.95,58.95,26.39,58.95,58.95-26.39,58.95-58.95,58.95Z" style="fill:#fafbfc; stroke-width:0px;"/><path d="M500.98,259.44c-32.56,0-58.95-26.39-58.95-58.95s26.39-58.95,58.95-58.95,58.95,26.39,58.95,58.95-26.39,58.95-58.95,58.95Z" style="fill:none; stroke:#c9c9c9; stroke-width:5px;"/></g><path d="M500.98,225.01c-13.54,0-24.52-10.98-24.52-24.52s10.98-24.52,24.52-24.52,24.52,10.98,24.52,24.52-10.98,24.52-24.52,24.52Z" style="fill:#fff; stroke-width:0px;"/><g style="clip-path:url(#clippath);"><path d="M507.76,194.75h-13.56v6.98l1.53-1.53.23-.23h3.91l.03-.03,3.65-3.65h1.11l3.1,3.1v-4.63h0ZM500.98,201.07l1.6,1.6.55.55-1.11,1.11-.55-.55-2.24-2.24h-2.62l-2.38,2.38-.03.03v1.24c0,.58.47,1.04,1.04,1.04h11.48c.58,0,1.04-.47,1.04-1.04h0v-3.59l-3.65-3.65-3.1,3.1-.03.03h0ZM492.63,203.42v1.76c0,1.44,1.17,2.61,2.61,2.61h11.48c1.44,0,2.61-1.17,2.61-2.61h0v-3.07l.59-.59-.55-.55-.03-.03v-7.76h-16.69v10.11l-.06.06.06.06h0Z" style="fill:#676767; fill-rule:evenodd; stroke-width:0px;"/></g><path d="M500.98,225.01c-13.54,0-24.52-10.98-24.52-24.52s10.98-24.52,24.52-24.52,24.52,10.98,24.52,24.52-10.98,24.52-24.52,24.52Z" style="fill:none; stroke:#c9c9c9; stroke-width:5px;"/></g><path d="M2.5,0h996.94c1.38,0,2.5.45,2.5,1v398.97c0,.55-1.12,1-2.5,1H2.5c-1.38,0-2.5-.45-2.5-1V1C0,.45,1.12,0,2.5,0Z" style="fill:#eaeaea; stroke-width:0px;"/><g style="opacity:.5;"><g style="opacity:.5;"><path d="M500.98,259.44c-32.56,0-58.95-26.39-58.95-58.95s26.39-58.95,58.95-58.95,58.95,26.39,58.95,58.95-26.39,58.95-58.95,58.95Z" style="fill:#fafbfc; stroke-width:0px;"/><path d="M500.98,259.44c-32.56,0-58.95-26.39-58.95-58.95s26.39-58.95,58.95-58.95,58.95,26.39,58.95,58.95-26.39,58.95-58.95,58.95Z" style="fill:none; stroke:#c9c9c9; stroke-width:5px;"/></g><path d="M500.98,225.01c-13.54,0-24.52-10.98-24.52-24.52s10.98-24.52,24.52-24.52,24.52,10.98,24.52,24.52-10.98,24.52-24.52,24.52Z" style="fill:#fff; stroke-width:0px;"/><g style="clip-path:url(#clippath-1);"><path d="M507.76,194.75h-13.56v6.98l1.53-1.53.23-.23h3.91l.03-.03,3.65-3.65h1.11l3.1,3.1v-4.63h0ZM500.98,201.07l1.6,1.6.55.55-1.11,1.11-.55-.55-2.24-2.24h-2.62l-2.38,2.38-.03.03v1.24c0,.58.47,1.04,1.04,1.04h11.48c.58,0,1.04-.47,1.04-1.04h0v-3.59l-3.65-3.65-3.1,3.1-.03.03h0ZM492.63,203.42v1.76c0,1.44,1.17,2.61,2.61,2.61h11.48c1.44,0,2.61-1.17,2.61-2.61h0v-3.07l.59-.59-.55-.55-.03-.03v-7.76h-16.69v10.11l-.06.06.06.06h0Z" style="fill:#676767; fill-rule:evenodd; stroke-width:0px;"/></g><path d="M500.98,225.01c-13.54,0-24.52-10.98-24.52-24.52s10.98-24.52,24.52-24.52,24.52,10.98,24.52,24.52-10.98,24.52-24.52,24.52Z" style="fill:none; stroke:#c9c9c9; stroke-width:5px;"/></g></svg>